HIERARCHY
ROOT Hips
{
	OFFSET 292.461487 92.071327 404.531097
	CHANNELS 6 Xposition Yposition Zposition Zrotation Yrotation Xrotation 
	JOINT LeftUpLeg
	{
		OFFSET 0.103459 1.857814 10.548504
		CHANNELS 3 Xrotation Yrotation Zrotation
		JOINT LeftLeg
		{
			OFFSET 43.500000 -0.000004 -0.000011
			CHANNELS 3 Xrotation Yrotation Zrotation
			JOINT LeftFoot
			{
				OFFSET 42.372196 -0.000004 0.000004
				CHANNELS 3 Xrotation Yrotation Zrotation
				JOINT LeftToe
				{
					OFFSET 17.300003 0.000001 -0.000008
					CHANNELS 3 Xrotation Yrotation Zrotation
					End Site
					{
						OFFSET 0.000000 0.000000 0.000000
					}
				}
			}
		}
	}
	JOINT RightUpLeg
	{
		OFFSET 0.103457 1.857841 -10.548511
		CHANNELS 3 Xrotation Yrotation Zrotation
		JOINT RightLeg
		{
			OFFSET 43.500042 -0.000038 0.000000
			CHANNELS 3 Xrotation Yrotation Zrotation
			JOINT RightFoot
			{
				OFFSET 42.372269 -0.000023 0.000011
				CHANNELS 3 Xrotation Yrotation Zrotation
				JOINT RightToe
				{
					OFFSET 17.300003 -0.000001 0.000023
					CHANNELS 3 Xrotation Yrotation Zrotation
					End Site
					{
						OFFSET 0.000000 0.000000 0.000000
					}
				}
			}
		}
	}
	JOINT Spine
	{
		OFFSET 6.901971 -2.603744 -0.000012
		CHANNELS 3 Xrotation Yrotation Zrotation
		JOINT Spine1
		{
			OFFSET 12.588097 -0.000002 0.000018
			CHANNELS 3 Xrotation Yrotation Zrotation
			JOINT Spine2
			{
				OFFSET 12.343208 0.000014 -0.000019
				CHANNELS 3 Xrotation Yrotation Zrotation
				JOINT Neck
				{
					OFFSET 25.832897 0.000008 0.000016
					CHANNELS 3 Xrotation Yrotation Zrotation
					JOINT Head
					{
						OFFSET 11.766600 -0.000006 0.000008
						CHANNELS 3 Xrotation Yrotation Zrotation
						End Site
						{
							OFFSET 0.000000 0.000000 0.000000
						}
					}
				}
				JOINT LeftShoulder
				{
					OFFSET 19.745909 -1.480356 6.000120
					CHANNELS 3 Xrotation Yrotation Zrotation
					JOINT LeftArm
					{
						OFFSET 11.284115 -0.000000 -0.000025
						CHANNELS 3 Xrotation Yrotation Zrotation
						JOINT LeftForeArm
						{
							OFFSET 33.000057 0.000003 0.000029
							CHANNELS 3 Xrotation Yrotation Zrotation
							JOINT LeftHand
							{
								OFFSET 25.200006 0.000029 0.000011
								CHANNELS 3 Xrotation Yrotation Zrotation
								End Site
								{
									OFFSET 0.000000 0.000000 0.000000
								}
							}
						}
					}
				}
				JOINT RightShoulder
				{
					OFFSET 19.746088 -1.480379 -6.000049
					CHANNELS 3 Xrotation Yrotation Zrotation
					JOINT RightArm
					{
						OFFSET 11.284159 -0.000019 -0.000011
						CHANNELS 3 Xrotation Yrotation Zrotation
						JOINT RightForeArm
						{
							OFFSET 33.000076 -0.000001 0.000001
							CHANNELS 3 Xrotation Yrotation Zrotation
							JOINT RightHand
							{
								OFFSET 25.199781 0.000139 0.000430
								CHANNELS 3 Xrotation Yrotation Zrotation
								End Site
								{
									OFFSET 0.000000 0.000000 0.000000
								}
							}
						}
					}
				}
			}
		}
	}
}
MOTION
Frames: 11
Frame Time: 0.033333
98.295593 90.832314 -234.589798 90.835178 0.674492 117.096599 -172.857908 2.451800 175.536039 -20.512759 -1.552056 2.103538 84.697979 -0.761088 3.019851 21.454560 0.003103 0.000018 163.357648 -2.253497 174.278601 -17.669201 3.344329 1.978021 74.110209 -2.539503 -3.462778 21.454555 -0.003085 0.000001 8.586821 -1.533173 0.020612 7.164092 -3.064611 -0.053529 6.845482 -3.064999 -0.035018 1.410435 -19.666087 -8.418833 -25.046459 22.677778 -21.982814 -174.209398 -73.659096 -7.332505 10.010455 38.696587 32.875541 -81.317282 -12.265326 2.821080 18.622917 19.272226 63.508000 -170.478708 83.257615 11.214793 -19.439623 -63.602448 -32.393067 -34.663377 16.518430 -1.425591 -0.404801 4.694133 -10.573862 
98.864319 90.933006 -233.246399 90.674272 0.611799 117.674706 -172.598662 2.217599 175.750890 -21.230928 -1.200772 2.375076 83.925895 -1.074656 2.376400 21.454555 0.003105 0.000017 163.644393 -1.971307 176.591959 -18.813867 3.491911 0.949108 74.851565 -1.983228 -4.109249 21.454550 -0.003101 -0.000001 8.458014 -1.360130 -0.028120 6.906754 -2.716078 -0.137203 6.588260 -2.716990 -0.120787 1.552655 -19.001885 -8.266575 -24.940861 22.250941 -21.478336 -174.203702 -73.115830 -7.333454 6.907752 42.146225 29.649059 -76.479623 -15.696832 2.851808 15.737963 13.636629 65.618932 -170.607908 82.837163 11.082848 -18.513825 -63.131507 -33.278720 -33.775084 16.381772 -1.396821 -0.433680 4.544253 -10.291190 
99.441612 91.103081 -231.840302 90.452564 0.736812 117.977297 -172.239558 1.821703 175.898094 -22.032556 -0.924140 2.575114 82.820914 -1.378210 1.572185 21.454555 0.003093 0.000017 164.577260 -2.176994 178.460194 -19.041553 3.125959 0.097817 75.419147 -1.448030 -4.433286 21.454550 -0.003107 -0.000001 8.341129 -1.170667 -0.057186 6.672629 -2.336023 -0.181581 6.354261 -2.337225 -0.167474 1.869278 -18.399450 -8.100282 -24.699561 21.711168 -20.859092 -174.899192 -72.694461 -6.614824 3.995037 45.543493 26.137942 -71.021140 -18.754986 2.833953 12.412590 10.295786 62.203926 -171.375716 82.726677 10.305723 -17.988749 -62.944216 -33.676586 -32.879277 16.255200 -1.369119 -0.004872 4.482686 -9.805609 
100.024101 91.308853 -230.379807 90.161618 0.984940 118.255792 -171.834732 1.226302 176.363476 -22.891372 -0.861641 2.638999 81.551134 -1.614454 0.711210 21.454557 0.003111 0.000018 165.924638 -2.623401 178.757607 -18.597376 3.080745 0.146150 75.871647 -1.532854 -4.688170 21.454551 -0.003085 0.000001 8.227848 -0.976593 -0.106557 6.446043 -1.945685 -0.267193 6.127745 -1.947395 -0.255446 2.109425 -17.434876 -7.876184 -24.128483 20.886218 -19.938311 -175.853288 -72.770017 -5.635190 1.129988 48.574246 23.377289 -64.895847 -21.177329 2.750220 8.176560 7.259705 52.852649 -171.174636 82.704828 10.509080 -17.897454 -62.886767 -33.753548 -32.222049 16.064098 -1.342851 0.220136 4.688240 -9.259940 
100.601097 91.505592 -228.882507 89.818354 1.294405 118.512798 -171.547099 0.549303 176.574638 -24.016294 -0.662398 2.839192 80.211788 -1.983344 -0.199780 21.454553 0.003102 0.000016 167.536699 -3.135697 178.177806 -17.667567 3.368200 0.665479 76.171089 -1.966705 -4.969357 21.454551 -0.003097 -0.000001 8.111840 -0.766661 -0.185811 6.214118 -1.522230 -0.412385 5.895906 -1.524821 -0.403190 2.309253 -16.597122 -7.554469 -23.432043 20.154220 -18.969580 -177.042014 -72.936906 -4.416066 -1.909773 50.685686 22.030388 -58.148658 -22.531264 2.578559 4.141581 2.563123 38.760664 -170.765603 82.650917 10.922763 -17.990575 -62.657656 -33.751766 -32.047377 15.905549 -1.329003 0.266865 4.771449 -9.022040 
101.157997 91.657547 -227.398605 89.412408 1.636036 118.717198 -171.508987 -0.151795 176.390414 -25.563853 -0.248036 3.157173 78.874082 -2.440666 -1.019690 21.454555 0.003110 0.000017 169.234124 -3.802309 177.927616 -16.545604 3.385733 0.979065 76.450410 -2.207102 -5.092809 21.454550 -0.003107 -0.000002 7.999937 -0.540908 -0.282922 5.990058 -1.066458 -0.593349 5.671911 -1.070161 -0.586906 2.567487 -15.932135 -7.211586 -22.900757 19.487691 -18.076179 -178.438310 -73.102019 -2.984443 -4.588968 51.795722 22.889362 -51.702579 -23.044614 2.378341 2.196332 -2.871021 21.435546 -169.687977 82.527058 12.012738 -18.395235 -62.306242 -33.437700 -32.358813 15.916771 -1.336264 0.441730 4.563955 -9.158186 
101.674797 91.725998 -225.973999 88.873049 2.037122 118.889988 -171.876615 -0.964803 175.603726 -27.813389 0.502249 3.679704 77.775248 -3.066953 -1.828642 21.454558 0.003110 0.000018 170.891552 -4.583696 177.831133 -15.383708 3.420635 1.174841 76.741164 -2.351666 -5.172654 21.454553 -0.003096 -0.000002 7.895011 -0.278884 -0.388329 5.779107 -0.538083 -0.790029 5.461024 -0.542976 -0.786773 2.968052 -15.453226 -6.900843 -22.589025 18.843712 -17.291025 179.522889 -73.170854 -0.892501 -6.454720 52.358553 24.592310 -46.714655 -22.545421 2.177961 2.462692 -7.360769 8.743738 -167.807311 82.463394 13.915990 -19.162007 -62.006629 -32.995998 -32.874534 16.081732 -1.357856 0.429203 4.680153 -9.109309 
102.189796 91.692497 -224.637604 88.375196 2.431473 119.022207 -172.894464 -1.814695 175.350217 -31.235524 0.867003 3.831957 76.609164 -3.455337 -2.674363 21.454560 0.003104 0.000018 172.298434 -5.277295 177.762490 -14.648676 3.512823 1.302206 77.245587 -2.429862 -5.223353 21.454551 -0.003093 -0.000001 7.810830 -0.030836 -0.500873 5.608944 -0.037419 -1.002649 5.290908 -0.043613 -1.002407 3.393930 -15.037391 -6.600554 -22.396332 18.271984 -16.584920 177.581312 -73.121437 1.101518 -7.719572 52.712494 26.891642 -43.142057 -22.096946 2.038393 3.650257 -9.789632 2.479814 -166.777018 82.293903 14.959193 -19.971823 -61.627868 -32.392951 -33.484176 16.357171 -1.388822 0.492242 4.947136 -8.872161 
102.705002 91.579323 -223.329605 88.030634 2.826546 119.129892 -174.488411 -2.515793 175.024321 -35.763830 1.396429 3.967831 75.328019 -3.829948 -3.415954 21.454557 0.003115 0.000018 173.515355 -5.766799 178.282049 -14.453426 3.611632 1.032289 78.027781 -2.250513 -5.397772 21.454553 -0.003081 0.000002 7.761786 0.172748 -0.612219 5.508761 0.374318 -1.215567 5.190739 0.366834 -1.217806 3.715447 -14.388697 -6.359087 -22.069233 17.480126 -15.808056 176.451694 -73.250302 2.257737 -8.492688 53.130126 29.077594 -41.268720 -21.941353 1.973987 4.236774 -9.352017 3.872836 -165.589795 82.009719 16.162511 -20.961128 -61.292157 -31.328401 -34.178550 16.539141 -1.415962 0.504965 5.567826 -8.007121 
103.167503 91.304497 -222.073807 87.533314 3.393908 119.254393 -176.716583 -3.763107 174.457703 -41.524774 1.810373 4.312189 73.969815 -4.456968 -4.410121 21.454555 0.003109 0.000017 174.457990 -6.506304 178.479810 -14.842044 3.797977 0.983024 79.088953 -2.212468 -5.587352 21.454553 -0.003087 0.000001 7.755091 0.416069 -0.688063 5.492369 0.864188 -1.355743 5.174341 0.855846 -1.360944 3.958976 -13.818496 -6.149769 -21.793993 16.721053 -15.116906 175.757993 -73.333562 2.967302 -9.113301 53.404508 30.730165 -40.388732 -21.615291 1.927957 3.755452 -7.443673 10.482406 -163.846498 81.713972 17.930338 -22.127438 -61.001253 -30.120496 -34.864110 16.711919 -1.442664 0.350947 6.528489 -7.179717 
103.642197 91.018913 -220.815399 87.092664 4.055159 119.349906 -179.440858 -5.031202 174.076537 -47.997266 2.272424 4.422556 71.639573 -5.082135 -5.644117 21.454558 0.003103 0.000016 175.547254 -7.319199 178.003951 -15.132392 3.993370 1.293957 80.135597 -2.397762 -5.688958 21.454550 -0.003092 -0.000002 7.784345 0.664950 -0.723874 5.547823 1.363681 -1.415305 5.229733 1.354976 -1.423524 4.331007 -13.665526 -5.975574 -21.695259 16.343741 -14.698156 174.992807 -73.230051 3.755022 -9.573367 53.442580 32.537225 -40.037234 -21.484230 1.909689 2.638602 -4.598307 16.196339 -162.690434 81.411326 19.104562 -23.266262 -60.669777 -29.030312 -35.441677 16.913650 -1.469064 0.465287 7.481367 -6.461300 
